<?xml version="1.0" standalone="no"?>
<!DOCTYPE svg PUBLIC "-//W3C//DTD SVG 20010904//EN"
 "http://www.w3.org/TR/2001/REC-SVG-20010904/DTD/svg10.dtd">
<svg version="1.0" xmlns="http://www.w3.org/2000/svg"
 width="564.000000pt" height="564.000000pt" viewBox="0 0 564.000000 564.000000"
 preserveAspectRatio="xMidYMid meet">

<g transform="translate(0.000000,564.000000) scale(0.100000,-0.100000)"
fill="#000000" stroke="none">
<path d="M2805 5043 c51 -121 62 -190 46 -278 -15 -83 -53 -157 -170 -333
-115 -175 -140 -238 -142 -361 -1 -85 6 -102 90 -201 l30 -35 158 3 c132 3
175 0 262 -18 176 -36 331 -105 481 -213 79 -58 211 -194 260 -271 24 -37 45
-65 47 -63 2 2 24 46 49 98 25 52 55 105 67 117 33 36 103 67 192 87 197 42
278 119 305 285 12 77 13 140 3 140 -5 -1 -29 -30 -55 -65 -53 -71 -108 -109
-190 -131 -60 -16 -418 -20 -418 -5 0 5 31 34 70 65 213 173 252 248 216 425
-9 45 -22 94 -27 109 -11 26 -12 25 -28 -34 -43 -153 -146 -255 -296 -294 -86
-22 -188 -75 -244 -125 -51 -47 -54 -48 -67 -30 -17 23 -18 78 -3 108 7 11 36
49 65 84 155 182 162 368 20 528 -24 28 -47 47 -50 44 -3 -3 -1 -30 4 -60 20
-99 -8 -203 -76 -286 -20 -24 -80 -75 -134 -113 -58 -41 -114 -90 -134 -118
-73 -98 -61 -92 -100 -49 -70 78 -69 162 4 399 28 89 53 192 56 229 13 140
-44 231 -209 332 -43 26 -80 47 -83 47 -4 0 -3 -8 1 -17z"/>
<path d="M2093 4614 c3 -5 26 -39 50 -76 60 -90 73 -149 54 -255 -21 -117 -90
-375 -97 -366 -4 5 -24 51 -45 103 -105 257 -185 325 -399 336 l-101 6 48 -32
c68 -44 133 -115 164 -180 24 -50 27 -70 34 -220 7 -166 15 -214 50 -282 24
-47 24 -58 -2 -58 -49 0 -95 40 -156 135 -86 133 -161 193 -277 220 -58 14
-74 14 -135 1 -38 -8 -91 -26 -117 -39 -54 -28 -54 -28 45 -42 60 -8 155 -60
195 -107 39 -45 81 -130 126 -253 34 -92 82 -179 127 -227 l25 -26 -28 -19
c-21 -14 -46 -18 -104 -17 -98 1 -154 23 -317 126 -162 102 -220 129 -291 135
-106 9 -255 -45 -367 -134 l-60 -47 117 -18 c207 -31 299 -84 464 -270 161
-181 280 -261 389 -262 52 -1 69 4 119 34 81 49 93 62 101 116 17 118 96 308
176 426 153 225 388 397 641 467 l56 16 -45 60 c-25 33 -55 71 -68 85 -55 60
-60 82 -60 265 0 170 0 170 -29 223 -37 66 -82 107 -161 143 -63 30 -132 48
-122 33z"/>
<path d="M2691 3748 c-84 -10 -241 -58 -316 -95 -202 -102 -381 -269 -475
-445 l-30 -56 50 -37 c28 -21 52 -36 54 -34 2 2 13 23 24 45 32 64 136 197
195 250 72 65 154 119 250 165 113 53 304 101 301 74 -1 -5 -41 -130 -90 -277
l-89 -268 -245 -1 c-135 -1 -248 -1 -252 0 -4 0 -12 -8 -18 -19 -9 -16 -2 -25
54 -64 l64 -46 176 0 177 0 -6 -22 c-4 -13 -18 -58 -32 -100 -13 -43 -22 -82
-18 -88 8 -12 95 -73 99 -68 6 6 314 952 353 1081 5 15 -3 17 -73 16 -44 -1
-112 -6 -153 -11z"/>
<path d="M2985 3690 c-18 -56 -14 -70 19 -70 34 0 180 -44 249 -74 157 -70
332 -225 425 -376 29 -46 52 -88 52 -92 0 -4 -134 -8 -297 -8 l-298 0 -75 231
c-53 164 -80 233 -93 241 -10 5 -21 8 -23 5 -2 -2 -15 -35 -27 -73 l-24 -68
54 -166 c29 -91 53 -166 53 -167 0 -1 -48 -4 -107 -5 l-106 -3 -18 -50 c-10
-27 -18 -56 -18 -62 -1 -10 121 -13 579 -13 319 0 580 4 580 8 0 23 -46 146
-81 216 -131 263 -411 489 -690 556 -128 30 -134 29 -154 -30z"/>
<path d="M5089 3494 c-43 -46 -142 -111 -206 -134 -89 -32 -180 -25 -343 28
-69 22 -152 43 -185 47 -127 14 -298 -28 -352 -86 -32 -35 -86 -158 -80 -183
3 -12 17 -54 31 -93 46 -125 66 -245 66 -389 0 -262 -74 -492 -221 -685 l-28
-35 97 -22 c53 -13 116 -33 140 -45 58 -30 127 -100 169 -172 56 -96 98 -141
161 -172 48 -24 69 -28 132 -27 74 1 182 24 228 48 21 11 18 13 -50 35 -92 29
-149 62 -200 114 -50 52 -70 90 -119 235 -22 64 -52 135 -66 159 -14 24 -24
46 -21 48 2 2 39 -19 83 -47 213 -136 315 -164 426 -117 54 22 179 98 179 109
0 3 -33 3 -72 2 -163 -8 -250 38 -363 193 -82 113 -129 158 -200 194 -66 33
-47 46 68 46 75 0 106 -5 172 -28 105 -38 159 -43 226 -24 88 26 162 106 213
229 l16 36 -68 -33 c-162 -80 -287 -65 -447 56 -59 45 -148 86 -205 95 -22 4
-40 11 -40 16 0 21 33 64 68 89 68 49 129 61 362 69 124 4 233 13 258 20 81
25 145 98 172 198 8 33 30 252 24 252 0 0 -11 -12 -25 -26z"/>
<path d="M1812 3012 c-42 -134 -47 -174 -46 -342 1 -144 4 -177 26 -261 44
-164 141 -341 251 -461 l43 -48 52 36 52 37 -43 49 c-159 185 -236 355 -257
565 -8 84 1 267 14 280 5 5 466 -323 477 -340 3 -5 -27 -108 -67 -230 -41
-122 -74 -230 -74 -240 0 -33 28 -28 88 15 l59 42 54 163 c29 90 57 163 62
163 4 0 44 -27 88 -59 l81 -59 53 36 c30 21 54 39 54 42 0 5 -574 417 -905
650 l-41 29 -21 -67z"/>
<path d="M3120 2713 c27 -82 109 -330 182 -552 l133 -404 82 62 c294 222 455
582 422 946 -4 50 -8 91 -8 93 -1 1 -30 2 -66 2 l-65 0 7 -27 c5 -16 7 -91 7
-168 -2 -167 -21 -253 -89 -392 -45 -91 -136 -222 -194 -277 l-30 -29 -9 24
c-36 94 -172 531 -168 538 3 4 92 70 198 146 229 163 210 148 202 168 -5 14
-21 17 -86 17 l-79 0 -139 -100 c-76 -55 -140 -100 -143 -100 -3 0 -20 45 -38
100 l-33 100 -67 0 -67 0 48 -147z"/>
<path d="M970 2723 c-61 -22 -228 -189 -207 -209 2 -3 32 2 65 10 33 9 91 16
128 16 118 0 196 -33 359 -150 55 -40 110 -77 123 -83 37 -17 25 -27 -31 -27
-73 0 -262 -27 -319 -46 -99 -32 -172 -114 -223 -247 -14 -37 -25 -70 -25 -73
0 -3 21 12 48 34 71 60 133 91 207 107 80 16 109 13 246 -31 133 -42 225 -57
300 -48 70 8 74 0 23 -55 -45 -51 -101 -77 -189 -91 -103 -15 -148 -35 -195
-86 -67 -73 -85 -122 -85 -239 0 -55 4 -109 8 -120 7 -17 12 -12 38 35 42 78
93 126 177 167 70 35 77 36 220 43 117 6 157 11 195 28 l48 22 9 -26 c35 -90
-22 -170 -195 -275 -283 -172 -334 -324 -219 -649 4 -9 15 10 28 46 45 124
121 220 219 278 25 14 123 52 219 85 188 64 226 82 305 148 60 50 93 112 93
174 0 44 -64 219 -81 219 -18 0 -180 130 -250 200 -193 195 -308 459 -325 748
-4 61 -9 112 -11 112 -3 0 -24 -14 -49 -31 -107 -73 -194 -87 -301 -48 -32 12
-62 25 -68 29 -5 4 -36 17 -68 29 -68 25 -152 26 -217 4z"/>
<path d="M2795 2310 c-159 -115 -370 -266 -467 -336 -98 -70 -178 -129 -178
-130 0 -7 156 -107 205 -132 84 -42 243 -90 344 -103 103 -14 297 -6 396 15
74 17 219 69 247 90 16 12 16 16 1 64 -9 29 -21 52 -26 52 -5 0 -50 -16 -100
-36 -227 -91 -450 -97 -683 -19 -84 28 -154 61 -154 73 1 11 459 337 473 336
7 -1 101 -65 209 -143 145 -104 203 -141 217 -136 18 5 18 8 -7 84 l-25 78
-139 99 c-76 54 -138 102 -138 105 0 4 38 34 84 68 l85 61 -21 60 c-11 33 -23
60 -26 60 -4 0 -137 -95 -297 -210z"/>
<path d="M3670 1853 c-110 -111 -280 -217 -430 -268 -135 -46 -225 -59 -395
-59 -171 0 -251 14 -398 67 -58 21 -67 23 -62 9 27 -67 46 -152 46 -201 1 -72
-20 -116 -96 -203 -105 -118 -135 -199 -115 -308 11 -62 57 -158 99 -209 l29
-35 6 75 c10 101 31 173 71 233 41 64 75 96 195 181 52 37 110 79 128 93 38
29 40 22 12 -68 -11 -36 -29 -113 -40 -172 -18 -98 -18 -112 -4 -165 18 -69
45 -107 125 -173 98 -81 101 -82 73 -2 -18 50 -24 88 -24 154 0 115 21 169
111 282 81 103 105 146 120 216 6 27 15 50 20 50 5 0 21 -19 36 -42 27 -40 28
-48 33 -197 6 -143 8 -161 33 -212 54 -112 141 -164 291 -176 l69 -6 -41 38
c-25 22 -57 68 -80 113 -35 73 -37 80 -37 176 1 85 5 114 30 186 24 70 30 101
30 178 0 106 4 109 82 71 84 -41 148 -148 228 -388 53 -156 81 -204 150 -246
l49 -30 135 4 c209 5 221 6 221 11 0 3 -23 16 -51 30 -80 39 -163 123 -201
205 l-33 70 -6 215 c-6 227 -8 240 -64 350 -64 126 -95 154 -199 176 -90 19
-107 17 -146 -23z"/>
</g>
</svg>
